<svg width="428" height="162" viewBox="0 0 428 162" fill="none" xmlns="http://www.w3.org/2000/svg">
<circle cx="73.5" cy="70" r="67.5" fill="white" stroke="black" stroke-width="5"/>
<path d="M5.21054 148.562L17.6296 116.534C18.4399 114.444 20.542 113.149 22.773 113.365L45.4816 115.563C48.0445 115.811 50 117.965 50 120.539V129.645C50 131.414 49.0647 133.052 47.5407 133.951L12.4131 154.676C8.32753 157.087 3.49558 152.985 5.21054 148.562Z" fill="#0ED3FF" stroke="black" stroke-width="5"/>
<circle cx="67" cy="58" r="22.5" fill="#0ED3FF" stroke="black" stroke-width="5"/>
<path d="M167.85 40.32C167.85 38.3567 168.573 36.755 170.02 35.515C171.467 34.1717 173.223 33.5 175.29 33.5H244.42C244.42 37.84 243.542 41.0433 241.785 43.11C240.028 45.1767 237.342 46.21 233.725 46.21H182.42V80.155H225.82C225.82 84.495 224.942 87.6983 223.185 89.765C221.428 91.8317 218.742 92.865 215.125 92.865H182.42V131.615C182.42 135.645 181.232 138.642 178.855 140.605C176.478 142.465 172.81 143.395 167.85 143.395V40.32Z" fill="#0ED3FF"/>
<path d="M170.02 35.515L170.996 36.6539L171.019 36.6345L171.041 36.6142L170.02 35.515ZM244.42 33.5H245.92V32H244.42V33.5ZM241.785 43.11L242.928 44.0815L242.928 44.0815L241.785 43.11ZM182.42 46.21V44.71H180.92V46.21H182.42ZM182.42 80.155H180.92V81.655H182.42V80.155ZM225.82 80.155H227.32V78.655H225.82V80.155ZM223.185 89.765L222.042 88.7935L222.042 88.7935L223.185 89.765ZM182.42 92.865V91.365H180.92V92.865H182.42ZM178.855 140.605L179.779 141.786L179.795 141.774L179.81 141.761L178.855 140.605ZM167.85 143.395H166.35V144.895H167.85V143.395ZM169.35 40.32C169.35 38.7793 169.893 37.5991 170.996 36.6539L169.044 34.3761C167.253 35.9109 166.35 37.9341 166.35 40.32H169.35ZM171.041 36.6142C172.196 35.5415 173.582 35 175.29 35V32C172.864 32 170.737 32.8018 168.999 34.4158L171.041 36.6142ZM175.29 35H244.42V32H175.29V35ZM242.92 33.5C242.92 37.6849 242.065 40.4645 240.642 42.1385L242.928 44.0815C245.018 41.6222 245.92 37.9951 245.92 33.5H242.92ZM240.642 42.1385C239.258 43.7671 237.057 44.71 233.725 44.71V47.71C237.626 47.71 240.799 46.5862 242.928 44.0815L240.642 42.1385ZM233.725 44.71H182.42V47.71H233.725V44.71ZM180.92 46.21V80.155H183.92V46.21H180.92ZM182.42 81.655H225.82V78.655H182.42V81.655ZM224.32 80.155C224.32 84.3399 223.465 87.1195 222.042 88.7935L224.328 90.7365C226.418 88.2772 227.32 84.6501 227.32 80.155H224.32ZM222.042 88.7935C220.658 90.4221 218.457 91.365 215.125 91.365V94.365C219.026 94.365 222.199 93.2412 224.328 90.7365L222.042 88.7935ZM215.125 91.365H182.42V94.365H215.125V91.365ZM180.92 92.865V131.615H183.92V92.865H180.92ZM180.92 131.615C180.92 135.345 179.832 137.852 177.9 139.449L179.81 141.761C182.632 139.431 183.92 135.945 183.92 131.615H180.92ZM177.931 139.424C175.94 140.981 172.673 141.895 167.85 141.895V144.895C172.947 144.895 177.016 143.949 179.779 141.786L177.931 139.424ZM169.35 143.395V40.32H166.35V143.395H169.35Z" fill="black"/>
<path className="logo-name-text" d="M219.16 145.54C215.72 145.54 212.94 144.62 210.82 142.78C208.74 140.94 207.7 138.52 207.7 135.52C207.7 132.48 208.8 130.04 211 128.2C213.2 126.32 216.1 125.38 219.7 125.38C223.54 125.38 226.7 126.74 229.18 129.46L229.42 129.22C228.98 128.74 228.48 128.24 227.92 127.72V125.2C227.92 123.16 227.28 121.58 226 120.46C224.72 119.34 222.9 118.78 220.54 118.78C216.34 118.78 213.34 120.44 211.54 123.76C210.9 123.44 210.36 123.02 209.92 122.5C209.52 121.94 209.32 121.38 209.32 120.82C209.32 119.74 209.86 118.72 210.94 117.76C212.02 116.76 213.44 115.96 215.2 115.36C217 114.76 218.88 114.46 220.84 114.46C224.64 114.46 227.62 115.4 229.78 117.28C231.98 119.16 233.08 121.76 233.08 125.08V141.52C233.08 142.92 232.68 143.94 231.88 144.58C231.08 145.22 229.82 145.54 228.1 145.54V142.72C228.94 141.84 229.4 141.32 229.48 141.16L229.24 140.92C226.64 144 223.28 145.54 219.16 145.54ZM220.06 141.4C222.54 141.4 224.48 140.88 225.88 139.84C227.32 138.8 228.04 137.36 228.04 135.52C228.04 133.68 227.34 132.22 225.94 131.14C224.54 130.06 222.62 129.52 220.18 129.52C217.9 129.52 216.1 130.06 214.78 131.14C213.5 132.18 212.86 133.64 212.86 135.52C212.86 137.4 213.48 138.86 214.72 139.9C216 140.9 217.78 141.4 220.06 141.4ZM251.173 145.54C249.133 145.54 247.213 145.24 245.413 144.64C243.613 144 242.153 143.1 241.033 141.94C239.953 140.78 239.413 139.42 239.413 137.86C239.413 135.94 240.573 134.9 242.893 134.74C243.293 136.98 244.233 138.64 245.713 139.72C247.233 140.76 249.153 141.28 251.473 141.28C253.793 141.28 255.593 140.94 256.873 140.26C258.153 139.58 258.793 138.54 258.793 137.14C258.793 136.14 258.533 135.34 258.013 134.74C257.493 134.1 256.653 133.56 255.493 133.12C254.373 132.64 252.753 132.18 250.633 131.74C247.993 131.14 245.893 130.5 244.333 129.82C242.773 129.14 241.573 128.24 240.733 127.12C239.933 126 239.533 124.52 239.533 122.68C239.533 121.12 240.013 119.72 240.973 118.48C241.933 117.2 243.253 116.22 244.933 115.54C246.653 114.82 248.593 114.46 250.753 114.46C252.753 114.46 254.633 114.74 256.393 115.3C258.193 115.86 259.633 116.66 260.713 117.7C261.833 118.74 262.393 119.94 262.393 121.3C262.393 122.22 262.033 122.96 261.313 123.52C260.593 124.04 259.593 124.34 258.313 124.42C258.193 122.66 257.473 121.28 256.153 120.28C254.873 119.24 253.073 118.72 250.753 118.72C248.833 118.72 247.313 119.08 246.193 119.8C245.073 120.52 244.513 121.48 244.513 122.68C244.513 123.96 245.033 124.92 246.073 125.56C247.153 126.16 248.973 126.74 251.533 127.3C255.733 128.14 258.813 129.3 260.773 130.78C262.773 132.22 263.773 134.28 263.773 136.96C263.773 139.68 262.673 141.8 260.473 143.32C258.273 144.8 255.173 145.54 251.173 145.54ZM295.625 144.22C295.305 144.62 294.905 144.94 294.425 145.18C293.945 145.42 293.405 145.54 292.805 145.54C292.165 145.54 291.605 145.42 291.125 145.18C290.645 144.94 290.205 144.5 289.805 143.86L280.265 128.92L275.825 132.88V141.76C275.825 144.28 274.105 145.54 270.665 145.54V106.78C270.665 103.9 272.405 102.46 275.885 102.46L275.825 127.54L290.345 114.52C291.505 115.6 292.085 116.52 292.085 117.28C292.085 117.84 291.945 118.3 291.665 118.66C291.425 118.98 290.945 119.46 290.225 120.1L283.505 126.04L295.625 144.22ZM305.293 145.54C304.173 145.54 303.233 145.18 302.473 144.46C301.713 143.7 301.333 142.76 301.333 141.64C301.333 140.52 301.713 139.58 302.473 138.82C303.233 138.06 304.173 137.68 305.293 137.68C306.373 137.68 307.313 138.08 308.113 138.88C308.913 139.64 309.313 140.56 309.313 141.64C309.313 142.72 308.913 143.64 308.113 144.4C307.313 145.16 306.373 145.54 305.293 145.54ZM316.192 118.9C316.192 115.94 317.852 114.46 321.172 114.46V118.3C320.652 118.86 320.232 119.4 319.912 119.92L320.152 120.16C321.432 118.36 322.792 116.96 324.232 115.96C325.672 114.96 327.332 114.46 329.212 114.46C332.852 114.46 335.352 116.2 336.712 119.68C338.992 116.2 342.032 114.46 345.832 114.46C348.672 114.46 350.852 115.42 352.372 117.34C353.932 119.22 354.712 121.7 354.712 124.78V141.7C354.712 143.02 354.272 144 353.392 144.64C352.552 145.24 351.272 145.54 349.552 145.54V125.08C349.552 123.16 349.152 121.66 348.352 120.58C347.552 119.5 346.292 118.96 344.572 118.96C342.772 118.96 341.232 119.58 339.952 120.82C338.672 122.02 338.032 123.64 338.032 125.68V141.7C338.032 143.02 337.612 144 336.772 144.64C335.932 145.24 334.652 145.54 332.932 145.54V125.08C332.932 123.16 332.532 121.66 331.732 120.58C330.932 119.5 329.672 118.96 327.952 118.96C326.112 118.96 324.552 119.62 323.272 120.94C321.992 122.26 321.352 123.88 321.352 125.8V141.7C321.352 143.02 320.912 144 320.032 144.64C319.192 145.24 317.912 145.54 316.192 145.54V118.9ZM374.6 145.54C372.16 145.54 369.98 145.08 368.06 144.16C366.14 143.2 364.64 141.9 363.56 140.26C362.48 138.58 361.94 136.7 361.94 134.62V125.74C361.94 123.62 362.5 121.7 363.62 119.98C364.78 118.26 366.32 116.92 368.24 115.96C370.2 114.96 372.32 114.46 374.6 114.46C376.88 114.46 378.96 114.94 380.84 115.9C382.76 116.86 384.26 118.18 385.34 119.86C386.46 121.54 387.02 123.44 387.02 125.56V129.4C387.02 130.04 386.78 130.58 386.3 131.02C385.82 131.46 385.24 131.68 384.56 131.68H367.04V134.38C367.04 136.42 367.68 138.06 368.96 139.3C370.28 140.54 372.16 141.16 374.6 141.16C377.04 141.16 378.9 140.62 380.18 139.54C381.46 138.46 382.1 137 382.1 135.16C383.3 135.08 384.3 135.32 385.1 135.88C385.94 136.4 386.36 137.18 386.36 138.22C386.36 139.5 385.8 140.7 384.68 141.82C383.6 142.94 382.16 143.84 380.36 144.52C378.56 145.2 376.64 145.54 374.6 145.54ZM382.16 127.6V125.56C382.16 123.56 381.46 121.94 380.06 120.7C378.7 119.42 376.88 118.78 374.6 118.78C372.32 118.78 370.48 119.42 369.08 120.7C367.72 121.94 367.04 123.56 367.04 125.56V127.6H382.16Z" fill="black"/>
</svg>
